<svg width="23" height="30" viewBox="0 0 23 30" fill="none" xmlns="http://www.w3.org/2000/svg">
<path d="M1.0866 19.9027L11.8134 1.32321C11.8646 1.2346 12 1.2709 12 1.37321V18.5V19.9527C12 20.008 11.9552 20.0527 11.9 20.0527H1.1732C1.09622 20.0527 1.04811 19.9694 1.0866 19.9027Z" fill="white"/>
<path d="M12 26V18.5M11.9 20.0527H1.1732C1.09622 20.0527 1.04811 19.9694 1.0866 19.9027L11.8134 1.32321C11.8646 1.2346 12 1.2709 12 1.37321V19.9527C12 20.008 11.9552 20.0527 11.9 20.0527Z" stroke="white"/>
<path d="M22.9 25C22.9552 25 23.0002 25.0448 22.9978 25.1C22.9411 26.3899 21.7892 27.6214 19.7782 28.5355C17.7153 29.4732 14.9174 30 12 30C9.08262 30 6.28473 29.4732 4.22183 28.5355C2.21083 27.6214 1.05889 26.3899 1.0022 25.1C0.999772 25.0448 1.04477 25 1.1 25L12 25H22.9Z" fill="white"/>
</svg>
